<svg height="395.94667pt" viewBox="0 0 395.94667 395.94667" width="395.94667pt" xmlns="http://www.w3.org/2000/svg"><path d="m197.972656 395.945312c-107.3125 0-197.972656-93.902343-197.972656-205.050781 0-107.042969 86.960938-190.894531 197.972656-190.894531 111.015625 0 197.972656 83.851562 197.972656 190.894531 0 111.148438-90.660156 205.050781-197.972656 205.050781zm0-382.292968c-103.359375 0-184.320312 77.855468-184.320312 177.242187 0 103.746094 84.40625 191.398438 184.320312 191.398438 99.914063 0 184.320313-87.652344 184.320313-191.398438 0-99.386719-80.960938-177.242187-184.320313-177.242187zm0 0"/><path d="m197.972656 211.625c-33.878906 0-61.4375 27.5625-61.4375 61.441406 0 3.769532 3.050782 6.828125 6.824219 6.828125h109.226563c3.773437 0 6.828124-3.058593 6.828124-6.828125 0-33.878906-27.558593-61.441406-61.441406-61.441406zm-27.304687 54.613281c0-15.078125 12.222656-27.304687 27.304687-27.304687 15.082032 0 27.308594 12.226562 27.308594 27.304687zm0 0"/><path d="m283.308594 177.492188c-13.175782 0-23.894532-10.714844-23.894532-23.890626 0-13.175781 10.71875-23.894531 23.894532-23.894531 13.171875 0 23.890625 10.71875 23.890625 23.894531 0 13.175782-10.71875 23.890626-23.890625 23.890626zm0-34.132813c-5.648438 0-10.242188 4.59375-10.242188 10.242187 0 5.644532 4.59375 10.238282 10.242188 10.238282 5.644531 0 10.238281-4.59375 10.238281-10.238282 0-5.648437-4.59375-10.242187-10.238281-10.242187zm0 0"/><path d="m112.640625 177.492188c-13.175781 0-23.894531-10.714844-23.894531-23.890626 0-13.175781 10.71875-23.894531 23.894531-23.894531 13.171875 0 23.894531 10.71875 23.894531 23.894531 0 13.175782-10.722656 23.890626-23.894531 23.890626zm0-34.132813c-5.648437 0-10.242187 4.59375-10.242187 10.242187 0 5.644532 4.59375 10.238282 10.242187 10.238282s10.238281-4.59375 10.238281-10.238282c0-5.648437-4.589844-10.242187-10.238281-10.242187zm0 0"/><path d="m300.375 122.878906h-54.613281c-3.773438 0-6.828125-3.054687-6.828125-6.824218 0-3.769532 3.054687-6.828126 6.828125-6.828126h54.613281c3.773438 0 6.824219 3.058594 6.824219 6.828126 0 3.769531-3.050781 6.824218-6.824219 6.824218zm0 0"/><path d="m75.71875 128.71875c-3.140625 0-5.964844-2.179688-6.660156-5.371094-.804688-3.679687 1.527344-7.320312 5.207031-8.128906l53.347656-11.671875c3.679688-.804687 7.328125 1.523437 8.128907 5.207031.804687 3.683594-1.527344 7.320313-5.207032 8.128906l-53.347656 11.675782c-.492188.109375-.980469.160156-1.46875.160156zm0 0"/></svg>