<svg height="395.94667pt" viewBox="0 0 395.94667 395.94667" width="395.94667pt" xmlns="http://www.w3.org/2000/svg"><path d="m197.972656 395.945312c-107.3125 0-197.972656-93.902343-197.972656-205.050781 0-107.042969 86.960938-190.894531 197.972656-190.894531 111.015625 0 197.972656 83.851562 197.972656 190.894531 0 111.148438-90.660156 205.050781-197.972656 205.050781zm0-382.292968c-103.355468 0-184.320312 77.855468-184.320312 177.242187 0 103.746094 84.40625 191.398438 184.320312 191.398438 99.914063 0 184.320313-87.652344 184.320313-191.398438 0-99.386719-80.960938-177.242187-184.320313-177.242187zm0 0"/><path d="m241.421875 225.832031c-2.585937 0-5.058594-1.476562-6.210937-3.980469-6.660157-14.503906-21.28125-23.878906-37.238282-23.878906-15.773437 0-29.878906 8.808594-36.8125 22.984375-1.660156 3.382813-5.734375 4.789063-9.132812 3.128907-3.386719-1.65625-4.792969-5.746094-3.132813-9.132813 9.246094-18.894531 28.050781-30.632813 49.078125-30.632813 21.273438 0 40.765625 12.496094 49.648438 31.832032 1.574218 3.425781.074218 7.480468-3.355469 9.054687-.921875.421875-1.890625.625-2.84375.625zm0 0"/><path d="m286.71875 136.535156h-34.132812c-2.515626 0-4.828126-1.386718-6.019532-3.609375-1.183594-2.21875-1.054687-4.914062.339844-7.007812l13.652344-20.476563c2.09375-3.136718 6.324218-3.988281 9.46875-1.894531 3.136718 2.089844 3.984375 6.328125 1.890625 9.46875l-6.574219 9.863281h21.375c3.769531 0 6.828125 3.058594 6.828125 6.828125s-3.058594 6.828125-6.828125 6.828125zm0 0"/><path d="m143.359375 136.535156h-34.132813c-3.769531 0-6.828124-3.058594-6.828124-6.828125s3.058593-6.828125 6.828124-6.828125h21.375l-6.578124-9.863281c-2.089844-3.140625-1.242188-7.378906 1.894531-9.46875 3.132812-2.09375 7.371093-1.242187 9.464843 1.894531l13.65625 20.476563c1.394532 2.09375 1.527344 4.789062.339844 7.007812-1.1875 2.222657-3.5 3.609375-6.019531 3.609375zm0 0"/></svg>