<svg height="422pt" viewBox="0 -13 422.97331 422" width="422pt" xmlns="http://www.w3.org/2000/svg"><path d="m211.363281 396.433594c-97.792969 0-183.71875-78.882813-196.355469-179.894532-4.472656-6.566406-8.179687-12.558593-11.324218-18.277343-4.230469-7.722657-4.847656-16.792969-1.695313-24.890625 2.695313-6.914063 7.800781-12.503906 14.320313-15.804688 16.054687-91.246094 97.457031-157.078125 195.054687-157.078125 97.074219 0 178.378907 65.390625 194.847657 156.050781 6.625 3.214844 11.84375 8.765626 14.644531 15.707032 3.28125 8.144531 2.726562 17.296875-1.511719 25.113281-3.222656 5.933594-7.015625 12.109375-11.582031 18.835937-12.472657 101.210938-98.417969 180.238282-196.398438 180.238282zm0-382.292969c-92.160156 0-168.78125 62.785156-182.1875 149.285156-.390625 2.515625-2.144531 4.605469-4.550781 5.421875-4.554688 1.542969-8.167969 5-9.914062 9.480469-1.707032 4.390625-1.375 9.136719.945312 13.363281 3.132812 5.710938 6.914062 11.761719 11.554688 18.496094.632812.917969 1.03125 1.976562 1.160156 3.082031 11.085937 95.050781 91.46875 169.511719 182.992187 169.511719 91.695313 0 172.09375-74.601562 183.039063-169.832031.128906-1.105469.519531-2.164063 1.15625-3.082031 4.710937-6.878907 8.570312-13.097657 11.785156-19.023438 2.324219-4.285156 2.625-9.078125.847656-13.496094-1.8125-4.5-5.507812-7.929687-10.136718-9.398437-2.457032-.78125-4.265626-2.878907-4.671876-5.425781-13.777343-85.980469-90.332031-148.382813-182.019531-148.382813zm0 0"/><path d="m384.996094 178.511719c-4.625-7.757813-12.765625-12.464844-21.882813-12.695313l-56.847656-12.089844c-62.972656-13.398437-126.808594-13.257812-189.726563.414063l-56.792968 12.339844c-9.113282.277343-17.234375 5.015625-21.828125 12.792969-4.660157 7.894531-4.800781 17.429687-.367188 25.507812 34.386719 62.695312 100.964844 101.640625 173.753907 101.640625 73.167968 0 139.902343-39.234375 174.167968-102.390625 4.398438-8.105469 4.21875-17.648438-.476562-25.519531zm-153.152344 108.695312h-40.960938c-15.082031 0-27.304687-12.226562-27.304687-27.308593 0-15.078126 12.222656-27.304688 27.304687-27.304688 8.203126 0 15.476563 3.691406 20.480469 9.417969 5.003907-5.726563 12.277344-9.417969 20.480469-9.417969 15.082031 0 27.304688 12.226562 27.304688 27.304688 0 15.082031-12.222657 27.308593-27.304688 27.308593zm116.054688-93.675781c0 6.492188-5.261719 11.753906-11.753907 11.753906h-249.558593c-6.492188 0-11.753907-5.261718-11.753907-11.753906v-15.550781l111.453125-15.921875c21.152344-3.023438 42.636719-2.867188 63.742188.46875l97.871094 15.453125zm0 0"/><path d="m177.230469 78.605469c-2.660157 0-5.1875-1.566407-6.289063-4.167969-3.984375-9.429688-13.179687-15.519531-23.414062-15.519531-9.804688 0-18.566406 5.476562-22.859375 14.300781-1.648438 3.386719-5.734375 4.808594-9.128907 3.152344-3.390624-1.648438-4.796874-5.734375-3.152343-9.125 6.601562-13.558594 20.066406-21.984375 35.140625-21.984375 15.734375 0 29.859375 9.363281 35.988281 23.855469 1.464844 3.472656-.15625 7.476562-3.628906 8.945312-.863281.371094-1.769531.542969-2.65625.542969zm0 0"/><path d="m300.109375 78.605469c-2.660156 0-5.1875-1.566407-6.285156-4.167969-3.988281-9.429688-13.183594-15.519531-23.414063-15.519531-9.808594 0-18.566406 5.476562-22.863281 14.300781-1.644531 3.386719-5.738281 4.808594-9.125 3.152344-3.394531-1.648438-4.800781-5.734375-3.15625-9.125 6.601563-13.558594 20.066406-21.984375 35.140625-21.984375 15.734375 0 29.859375 9.363281 35.988281 23.855469 1.464844 3.472656-.15625 7.476562-3.628906 8.945312-.863281.371094-1.769531.542969-2.65625.542969zm0 0"/></svg>