<svg height="395.94667pt" viewBox="0 0 395.94667 395.94667" width="395.94667pt" xmlns="http://www.w3.org/2000/svg"><path d="m197.972656 395.945312c-107.3125 0-197.972656-93.902343-197.972656-205.050781 0-107.042969 86.960938-190.894531 197.972656-190.894531 111.015625 0 197.972656 83.851562 197.972656 190.894531 0 111.148438-90.660156 205.050781-197.972656 205.050781zm0-382.292968c-103.355468 0-184.320312 77.855468-184.320312 177.242187 0 103.746094 84.40625 191.398438 184.320312 191.398438 99.914063 0 184.320313-87.652344 184.320313-191.398438 0-99.386719-80.960938-177.242187-184.320313-177.242187zm0 0"/><path d="m286.71875 170.667969c-3.769531 0-6.824219-3.058594-6.824219-6.828125 0-7.527344-6.125-13.652344-13.65625-13.652344-7.527343 0-13.652343 6.125-13.652343 13.652344 0 3.769531-3.054688 6.828125-6.824219 6.828125-3.773438 0-6.828125-3.058594-6.828125-6.828125 0-15.054688 12.25-27.304688 27.304687-27.304688 15.058594 0 27.308594 12.25 27.308594 27.304688 0 3.769531-3.058594 6.828125-6.828125 6.828125zm0 0"/><path d="m150.1875 170.667969c-3.769531 0-6.828125-3.058594-6.828125-6.828125 0-7.527344-6.121094-13.652344-13.652344-13.652344s-13.652343 6.125-13.652343 13.652344c0 3.769531-3.058594 6.828125-6.828126 6.828125-3.769531 0-6.828124-3.058594-6.828124-6.828125 0-15.054688 12.253906-27.304688 27.308593-27.304688 15.054688 0 27.304688 12.25 27.304688 27.304688 0 3.769531-3.054688 6.828125-6.824219 6.828125zm0 0"/><path d="m197.972656 259.414062c-54.726562 0-104.460937-12.9375-133.035156-34.609374-3.007812-2.277344-3.59375-6.558594-1.316406-9.5625 2.285156-3.003907 6.566406-3.59375 9.5625-1.316407 25.898437 19.636719 73.710937 31.835938 124.789062 31.835938 51.804688 0 99.953125-12.457031 125.652344-32.5 2.976562-2.316407 7.261719-1.792969 9.585938 1.183593 2.316406 2.972657 1.785156 7.261719-1.183594 9.582032-28.410156 22.15625-78.523438 35.386718-134.054688 35.386718zm0 0"/></svg>