<svg height="395.94667pt" viewBox="0 0 395.94667 395.94667" width="395.94667pt" xmlns="http://www.w3.org/2000/svg"><path d="m197.972656 395.945312c-107.3125 0-197.972656-93.902343-197.972656-205.050781 0-107.042969 86.960938-190.894531 197.972656-190.894531 111.015625 0 197.972656 83.851562 197.972656 190.894531 0 111.148438-90.660156 205.050781-197.972656 205.050781zm0-382.292968c-103.359375 0-184.320312 77.855468-184.320312 177.242187 0 103.746094 84.40625 191.398438 184.320312 191.398438 99.914063 0 184.320313-87.652344 184.320313-191.398438 0-99.386719-80.960938-177.242187-184.320313-177.242187zm0 0"/><path d="m317.441406 177.492188c-9.425781 0-17.066406-7.640626-17.066406-17.066407 0-6.851562 4.0625-12.722656 9.890625-15.4375-3.152344-.957031-6.429687-1.628906-9.890625-1.628906-18.851562 0-34.136719 15.285156-34.136719 34.132813 0 18.851562 15.285157 34.132812 34.136719 34.132812s34.132812-15.28125 34.132812-34.132812c0-3.464844-.671874-6.742188-1.632812-9.890626-2.714844 5.828126-8.582031 9.890626-15.433594 9.890626zm-30.722656 20.480468c-5.65625 0-10.238281-4.582031-10.238281-10.238281s4.582031-10.242187 10.238281-10.242187 10.242188 4.585937 10.242188 10.242187-4.585938 10.238281-10.242188 10.238281zm0 0"/><path d="m112.640625 177.492188c-9.425781 0-17.066406-7.640626-17.066406-17.066407 0-6.851562 4.0625-12.722656 9.890625-15.4375-3.148438-.957031-6.425782-1.628906-9.890625-1.628906-18.851563 0-34.132813 15.285156-34.132813 34.132813 0 18.851562 15.28125 34.132812 34.132813 34.132812 18.851562 0 34.132812-15.28125 34.132812-34.132812 0-3.464844-.667969-6.742188-1.628906-9.890626-2.714844 5.828126-8.585937 9.890626-15.4375 9.890626zm-30.71875 20.480468c-5.65625 0-10.242187-4.582031-10.242187-10.238281s4.585937-10.242187 10.242187-10.242187c5.652344 0 10.238281 4.585937 10.238281 10.242187s-4.585937 10.238281-10.238281 10.238281zm0 0"/><path d="m315.976562 240.394531c0 6.734375-5.457031 12.191407-12.191406 12.191407-6.730468 0-12.1875-5.457032-12.1875-12.191407 0-6.730469 9.75-21.941406 12.1875-21.941406 2.441406 0 12.191406 15.210937 12.191406 21.941406zm0 0"/><path d="m111.175781 240.394531c0 6.734375-5.457031 12.191407-12.1875 12.191407-6.734375 0-12.191406-5.457032-12.191406-12.191407 0-6.730469 9.75-21.941406 12.191406-21.941406 2.4375 0 12.1875 15.210937 12.1875 21.941406zm0 0"/><path d="m111.175781 288.183594c0 6.730468-5.457031 12.191406-12.1875 12.191406-6.734375 0-12.191406-5.460938-12.191406-12.191406 0-6.734375 9.75-21.945313 12.191406-21.945313 2.4375 0 12.1875 15.210938 12.1875 21.945313zm0 0"/><path d="m198.421875 229.652344c-17.269531 0-33.082031-10.136719-40.289063-25.828125-1.570312-3.425781-.066406-7.480469 3.363282-9.050781 3.417968-1.574219 7.472656-.074219 9.054687 3.355468 4.976563 10.859375 15.925781 17.871094 27.871094 17.871094 11.808594 0 22.359375-6.59375 27.554687-17.203125 1.667969-3.382813 5.746094-4.789063 9.132813-3.132813 3.386719 1.660157 4.789063 5.75 3.132813 9.132813-7.503907 15.332031-22.761719 24.855469-39.820313 24.855469zm0 0"/></svg>