<svg height="422pt" viewBox="0 -13 422.73451 422" width="422pt" xmlns="http://www.w3.org/2000/svg"><path d="m357.65625 77.996094c-1.886719 0-3.769531-.78125-5.117188-2.308594-34.609374-39.191406-86.070312-61.667969-141.171874-61.667969-55.101563 0-106.5625 22.476563-141.171876 61.667969-2.5 2.828125-6.808593 3.09375-9.632812.597656s-3.09375-6.808594-.597656-9.636718c37.199218-42.121094 92.386718-66.28125 151.402344-66.28125 59.015624 0 114.203124 24.160156 151.402343 66.28125 2.5 2.828124 2.226563 7.140624-.597656 9.636718-1.296875 1.148438-2.910156 1.710938-4.515625 1.710938zm0 0"/><path d="m211.367188 396.3125c-107.3125 0-197.972657-93.902344-197.972657-205.050781 0-14.1875 1.511719-28.238281 4.488281-41.769531.808594-3.679688 4.445313-6.007813 8.136719-5.195313 3.679688.808594 6.007813 4.453125 5.199219 8.132813-2.769531 12.566406-4.171875 25.628906-4.171875 38.832031 0 103.746093 84.40625 191.398437 184.320313 191.398437 99.914062 0 184.320312-87.652344 184.320312-191.398437 0-13.085938-1.382812-26.050781-4.101562-38.527344-.804688-3.683594 1.527343-7.320313 5.210937-8.125 3.675781-.804687 7.324219 1.53125 8.128906 5.214844 2.929688 13.429687 4.417969 27.371093 4.417969 41.433593-.003906 111.152344-90.664062 205.054688-197.976562 205.054688zm0 0"/><path d="m265.980469 198.339844h-109.226563c-3.769531 0-6.828125 3.058594-6.828125 6.828125 0 33.878906 27.5625 61.4375 61.441407 61.4375 33.878906 0 61.441406-27.558594 61.441406-61.4375 0-3.769531-3.058594-6.828125-6.828125-6.828125zm-13.652344 27.308594h-81.921875c-3.769531 0-6.824219-3.058594-6.824219-6.828126 0-3.769531 3.054688-6.828124 6.824219-6.828124h81.921875c3.769531 0 6.824219 3.058593 6.824219 6.828124 0 3.769532-3.054688 6.828126-6.824219 6.828126zm0 0"/><path d="m78.246094 208.582031c-1.808594 0-3.546875-.71875-4.824219-2l-59.164063-59.167969c-9.195312-9.1875-14.257812-21.410156-14.257812-34.410156 0-12.996094 5.0625-25.21875 14.257812-34.40625 9.191407-9.191406 21.410157-14.253906 34.410157-14.253906 10.832031 0 21.128906 3.515625 29.578125 10.011719 8.449218-6.496094 18.746094-10.011719 29.582031-10.011719 13 0 25.21875 5.0625 34.410156 14.253906 9.191407 9.1875 14.257813 21.410156 14.257813 34.40625 0 13-5.066406 25.222656-14.257813 34.410156l-59.164062 59.167969c-1.28125 1.28125-3.015625 2-4.828125 2zm-29.578125-130.582031c-9.351563 0-18.144531 3.640625-24.757813 10.253906-6.613281 6.609375-10.257812 15.402344-10.257812 24.753906 0 9.351563 3.644531 18.140626 10.257812 24.753907l54.335938 54.335937 54.339844-54.335937c6.613281-6.613281 10.253906-15.402344 10.253906-24.753907 0-9.351562-3.640625-18.140624-10.253906-24.753906-6.613282-6.613281-15.40625-10.253906-24.757813-10.253906s-18.140625 3.640625-24.753906 10.253906c-2.558594 2.558594-7.09375 2.558594-9.652344 0-6.613281-6.613281-15.40625-10.253906-24.753906-10.253906zm0 0"/><path d="m344.488281 208.582031c-1.8125 0-3.546875-.71875-4.828125-2l-59.164062-59.167969c-9.191406-9.1875-14.257813-21.410156-14.257813-34.410156 0-12.996094 5.066407-25.21875 14.257813-34.40625 9.191406-9.191406 21.410156-14.253906 34.410156-14.253906 10.835938 0 21.132812 3.515625 29.582031 10.011719 8.449219-6.496094 18.746094-10.011719 29.578125-10.011719 13 0 25.21875 5.0625 34.410156 14.253906 9.195313 9.1875 14.257813 21.410156 14.257813 34.40625 0 13-5.0625 25.222656-14.257813 34.410156l-59.164062 59.167969c-1.277344 1.28125-3.015625 2-4.824219 2zm-29.582031-130.582031c-9.351562 0-18.140625 3.640625-24.753906 10.253906-6.617188 6.609375-10.257813 15.402344-10.257813 24.753906 0 9.351563 3.640625 18.140626 10.257813 24.753907l54.335937 54.335937 54.335938-54.335937c6.613281-6.613281 10.257812-15.402344 10.257812-24.753907 0-9.351562-3.644531-18.140624-10.257812-24.753906-6.613281-6.613281-15.402344-10.253906-24.757813-10.253906-9.351562 0-18.140625 3.640625-24.753906 10.253906-2.558594 2.558594-7.089844 2.558594-9.652344 0-6.613281-6.613281-15.402344-10.253906-24.753906-10.253906zm0 0"/><path d="m33.875 123.246094c-1.746094 0-3.496094-.667969-4.828125-2-2.664063-2.664063-2.664063-6.988282 0-9.652344l20.480469-20.480469c2.664062-2.667969 6.988281-2.667969 9.652344 0 2.667968 2.664063 2.667968 6.988281 0 9.652344l-20.480469 20.480469c-1.332031 1.332031-3.078125 2-4.824219 2zm0 0"/><path d="m300.113281 123.246094c-1.746093 0-3.492187-.667969-4.824219-2-2.667968-2.664063-2.667968-6.988282 0-9.652344l20.476563-20.480469c2.667969-2.667969 6.988281-2.667969 9.65625 0 2.664063 2.664063 2.664063 6.988281 0 9.652344l-20.480469 20.480469c-1.332031 1.332031-3.082031 2-4.828125 2zm0 0"/></svg>