<svg height="395.94667pt" viewBox="0 0 395.94667 395.94667" width="395.94667pt" xmlns="http://www.w3.org/2000/svg"><path d="m197.972656 395.945312c-29.742187 0-58.460937-6.945312-85.355468-20.640624-3.359376-1.714844-4.695313-5.824219-2.984376-9.183594 1.710938-3.355469 5.804688-4.703125 9.183594-2.984375 24.953125 12.710937 51.585938 19.15625 79.15625 19.15625 99.914063 0 184.320313-87.652344 184.320313-191.398438 0-99.386719-80.960938-177.242187-184.320313-177.242187-103.355468 0-184.320312 77.855468-184.320312 177.242187 0 44.191407 15.683594 87.769531 44.152344 122.699219 2.382812 2.921875 1.949218 7.222656-.972657 9.605469-2.921875 2.382812-7.222656 1.945312-9.605469-.976563-30.457031-37.363281-47.226562-84.003906-47.226562-131.328125 0-107.042969 86.960938-190.894531 197.972656-190.894531 111.015625 0 197.972656 83.851562 197.972656 190.894531 0 111.148438-90.660156 205.050781-197.972656 205.050781zm0 0"/><path d="m273.066406 105.8125c0 9.425781-7.640625 17.066406-17.066406 17.066406s-17.066406-7.640625-17.066406-17.066406 7.640625-17.066406 17.066406-17.066406 17.066406 7.640625 17.066406 17.066406zm0 0"/><path d="m157.011719 119.464844c0 9.425781-7.640625 17.070312-17.066407 17.070312-9.425781 0-17.066406-7.644531-17.066406-17.070312 0-9.425782 7.640625-17.066406 17.066406-17.066406 9.425782 0 17.066407 7.640624 17.066407 17.066406zm0 0"/><path d="m241.421875 205.351562c-2.585937 0-5.058594-1.476562-6.210937-3.980468-6.660157-14.503906-21.28125-23.878906-37.238282-23.878906-15.773437 0-29.878906 8.808593-36.8125 22.984374-1.65625 3.386719-5.730468 4.789063-9.132812 3.128907-3.386719-1.65625-4.792969-5.742188-3.132813-9.128907 9.246094-18.898437 28.050781-30.636718 49.078125-30.636718 21.273438 0 40.765625 12.496094 49.648438 31.832031 1.574218 3.425781.074218 7.480469-3.355469 9.054687-.921875.425782-1.890625.625-2.84375.625zm0 0"/><path d="m102.398438 119.464844c-3.769532 0-6.824219-3.054688-6.824219-6.824219 0-24.46875 19.90625-44.375 44.371093-44.375 3.769532 0 6.828126 3.058594 6.828126 6.828125s-3.058594 6.828125-6.828126 6.828125c-16.9375 0-30.71875 13.78125-30.71875 30.71875 0 3.769531-3.054687 6.824219-6.828124 6.824219zm0 0"/><path d="m130.90625 375.464844h-45.65625c-20.65625 0-37.464844-16.804688-37.464844-37.460938v-58.214844c0-9.484374 1.042969-18.992187 3.105469-28.257812.074219-.351562.179687-.695312.316406-1.03125l15.386719-38.867188c2.300781-8.957031 11.078125-14.84375 20.359375-13.453124 8.808594 1.320312 15.449219 9.390624 15.449219 18.773437 0 .3125-.019532.625-.0625.9375l-5.757813 41.523437h142.351563c11.292968 0 20.480468 9.1875 20.480468 20.480469s-9.1875 20.480469-20.480468 20.480469h-54.351563c-6.601562 0-12.234375 4.933594-13.109375 11.476562l-4.242187 31.8125c-2.414063 18.128907-18.03125 31.800782-36.324219 31.800782zm-66.800781-120.453125c-1.769531 8.132812-2.664063 16.464843-2.664063 24.777343v58.214844c0 13.128906 10.679688 23.808594 23.808594 23.808594h45.65625c11.476562 0 21.273438-8.578125 22.792969-19.953125l4.242187-31.8125c1.769532-13.296875 13.226563-23.328125 26.640625-23.328125h54.351563c3.761718 0 6.828125-3.058594 6.828125-6.824219s-3.066407-6.828125-6.828125-6.828125h-143.058594c-3.769531 0-7.355469-1.632812-9.832031-4.472656-2.476563-2.84375-3.597657-6.613281-3.082031-10.347656l5.773437-41.675782c-.160156-2.4375-1.804687-4.585937-3.808594-4.890624-2.410156-.363282-4.621093 1.144531-5.144531 3.496093-.078125.355469-.183594.699219-.320312 1.035157zm0 0"/></svg>