<svg height="395.94667pt" viewBox="0 0 395.94667 395.94667" width="395.94667pt" xmlns="http://www.w3.org/2000/svg"><path d="m197.972656 395.945312c-107.3125 0-197.972656-93.902343-197.972656-205.050781 0-107.042969 86.960938-190.894531 197.972656-190.894531 111.015625 0 197.972656 83.851562 197.972656 190.894531 0 111.148438-90.660156 205.050781-197.972656 205.050781zm0-382.292968c-103.355468 0-184.320312 77.855468-184.320312 177.242187 0 103.746094 84.40625 191.398438 184.320312 191.398438 99.914063 0 184.320313-87.652344 184.320313-191.398438 0-99.386719-80.960938-177.242187-184.320313-177.242187zm0 0"/><path d="m266.238281 143.359375c-15.054687 0-27.304687-12.25-27.304687-27.304687 0-3.769532 3.054687-6.828126 6.828125-6.828126 3.769531 0 6.824219 3.058594 6.824219 6.828126 0 7.527343 6.125 13.652343 13.652343 13.652343 7.53125 0 13.65625-6.125 13.65625-13.652343 0-3.769532 3.054688-6.828126 6.824219-6.828126s6.828125 3.058594 6.828125 6.828126c0 15.054687-12.25 27.304687-27.308594 27.304687zm0 0"/><path d="m129.707031 143.359375c-15.054687 0-27.308593-12.25-27.308593-27.304687 0-3.769532 3.058593-6.828126 6.828124-6.828126 3.769532 0 6.828126 3.058594 6.828126 6.828126 0 7.527343 6.121093 13.652343 13.652343 13.652343s13.652344-6.125 13.652344-13.652343c0-3.769532 3.058594-6.828126 6.828125-6.828126s6.824219 3.058594 6.824219 6.828126c0 15.054687-12.25 27.304687-27.304688 27.304687zm0 0"/><path d="m82.863281 218.453125c-1.902343 0-3.796875-.789063-5.148437-2.335937-2.476563-2.839844-2.183594-7.152344.65625-9.632813 25.550781-22.308594 70.59375-35.628906 120.492187-35.628906 49.175781 0 93.882813 13.027343 119.582031 34.84375 2.875 2.441406 3.226563 6.75.785157 9.621093-2.433594 2.875-6.742188 3.230469-9.621094.789063-22.960937-19.492187-65.394531-31.601563-110.746094-31.601563-45.992187 0-88.722656 12.363282-111.515625 32.261719-1.289062 1.128907-2.890625 1.683594-4.484375 1.683594zm0 0"/></svg>