<svg height="398pt" viewBox="-1 0 398 398.22336" width="398pt" xmlns="http://www.w3.org/2000/svg"><path d="m198.085938 395.945312c-19.023438 0-37.882813-2.910156-56.070313-8.644531-3.597656-1.136719-5.589844-4.96875-4.457031-8.566406 1.136718-3.597656 4.988281-5.585937 8.5625-4.457031 32.59375 10.285156 67.839844 10.636718 100.585937 1.019531 3.621094-1.0625 7.414063 1.007813 8.472657 4.625 1.0625 3.617187-1.011719 7.414063-4.625 8.472656-17.0625 5.011719-34.71875 7.550781-52.46875 7.550781zm0 0"/><path d="m68.898438 342.445312c-1.710938 0-3.417969-.636718-4.742188-1.917968-40.699219-39.335938-64.042969-93.875-64.042969-149.632813 0-107.042969 86.957031-190.894531 197.972657-190.894531 111.011718 0 197.972656 83.851562 197.972656 190.894531 0 55.269531-23.003906 109.476563-63.113282 148.726563-2.691406 2.632812-7.019531 2.589844-9.652343-.105469-2.636719-2.695313-2.589844-7.015625.105469-9.652344 37.5-36.699219 59.007812-87.347656 59.007812-138.96875 0-99.386719-80.964844-177.242187-184.320312-177.242187-103.359376 0-184.320313 77.855468-184.320313 177.242187 0 52.078125 21.824219 103.039063 59.875 139.8125 2.714844 2.621094 2.789063 6.941407.167969 9.652344-1.339844 1.386719-3.121094 2.085937-4.910156 2.085937zm0 0"/><path d="m241.53125 225.832031c-2.582031 0-5.054688-1.476562-6.207031-3.980469-6.664063-14.503906-21.285157-23.878906-37.238281-23.878906-15.773438 0-29.882813 8.808594-36.8125 22.984375-1.660157 3.382813-5.734376 4.789063-9.136719 3.128907-3.382813-1.65625-4.789063-5.746094-3.132813-9.132813 9.246094-18.894531 28.050782-30.632813 49.082032-30.632813 21.273437 0 40.761718 12.496094 49.644531 31.832032 1.574219 3.425781.074219 7.480468-3.351563 9.054687-.925781.421875-1.894531.625-2.847656.625zm0 0"/><path d="m136.644531 136.535156h-54.613281c-3.769531 0-6.828125-3.058594-6.828125-6.828125s3.058594-6.828125 6.828125-6.828125h51.789062l11.652344-11.652344c2.664063-2.664062 6.988282-2.664062 9.652344 0 2.664062 2.667969 2.664062 6.988282 0 9.65625l-13.652344 13.652344c-1.28125 1.28125-3.015625 2-4.828125 2zm0 0"/><path d="m99.097656 398.222656c-38.503906 0-58.027344-5.359375-58.027344-15.929687 0-6.71875 6.222657-10.695313 21.1875-13.25l12.957032-239.703125c.195312-3.625 3.191406-6.460938 6.816406-6.460938h47.785156c3.773438 0 6.828125 3.058594 6.828125 6.828125v239.460938c14.457031 2.558593 20.480469 6.507812 20.480469 13.125 0 10.570312-19.523438 15.929687-58.027344 15.929687zm45.734375-12.5625h.066407zm-79.003906-3.363281c7.796875 1.253906 19.015625 2.273437 33.269531 2.273437 14.257813 0 25.472656-1.019531 33.265625-2.273437-1.0625-.171875-2.210937-.339844-3.453125-.507813-3.386718-.453124-5.917968-3.347656-5.917968-6.765624v-238.488282h-34.492188l-12.90625 238.804688c-.179688 3.28125-2.671875 5.96875-5.929688 6.398437-1.390624.183594-2.664062.367188-3.835937.558594zm0 0"/><path d="m314.136719 136.535156h-54.613281c-1.808594 0-3.542969-.71875-4.824219-2.003906l-13.652344-13.652344c-2.667969-2.664062-2.667969-6.988281 0-9.652344 2.664063-2.667968 6.984375-2.667968 9.652344 0l11.652343 11.652344h51.785157c3.773437 0 6.828125 3.054688 6.828125 6.824219 0 3.773437-3.054688 6.832031-6.828125 6.832031zm0 0"/><path d="m297.070312 398.222656c-38.503906 0-58.023437-5.359375-58.023437-15.929687 0-6.617188 6.019531-10.5625 20.476563-13.125v-239.460938c0-3.769531 3.058593-6.828125 6.828124-6.828125h47.785157c3.628906 0 6.621093 2.835938 6.816406 6.460938l12.957031 239.703125c14.964844 2.554687 21.1875 6.53125 21.1875 13.25 0 10.570312-19.523437 15.929687-58.027344 15.929687zm45.734376-12.566406h.066406zm-79-3.359375c7.796874 1.253906 19.011718 2.273437 33.265624 2.273437 14.257813 0 25.476563-1.019531 33.269532-2.273437-1.171875-.1875-2.445313-.375-3.835938-.558594-3.253906-.429687-5.75-3.117187-5.925781-6.398437l-12.90625-238.804688h-34.492187v238.488282c0 3.417968-2.53125 6.3125-5.921876 6.765624-1.238281.167969-2.390624.335938-3.453124.507813zm0 0"/></svg>